<svg width="249" height="101" viewBox="0 0 249 101" fill="none" xmlns="http://www.w3.org/2000/svg">
<rect width="249" height="100" fill="white"/>
<path d="M170.024 31.0484C164.863 25.8473 158.024 23 150.724 23C143.423 23 136.584 25.8614 131.423 31.0484L121.772 40.7742L141.073 60.2258C143.647 62.8193 147.073 64.257 150.724 64.257C154.374 64.257 157.8 62.8334 160.374 60.2258C165.689 54.8696 165.689 46.1445 160.374 40.7742C157.8 38.1807 154.374 36.743 150.724 36.743C147.073 36.743 143.647 38.1666 141.073 40.7742L134.64 47.2581L128.206 40.7742L134.64 34.2904C138.933 29.9631 144.64 27.581 150.724 27.581C156.807 27.581 162.514 29.9631 166.807 34.2904C175.675 43.2268 175.675 57.7591 166.807 66.6955C162.514 71.0228 156.807 73.4049 150.724 73.4049C144.64 73.4049 138.933 71.0228 134.64 66.6955L131.423 63.4536L128.206 66.6955L131.423 69.9375C136.584 75.1245 143.423 77.9859 150.724 77.9859C158.024 77.9859 164.863 75.1245 170.024 69.9375C180.668 59.2109 180.668 41.775 170.024 31.0484ZM141.087 47.2581L144.304 44.0161C146.024 42.2824 148.304 41.3239 150.737 41.3239C153.171 41.3239 155.451 42.2824 157.171 44.002C160.724 47.5823 160.724 53.3895 157.171 56.9698C155.451 58.7035 153.171 59.6479 150.737 59.6479C148.304 59.6479 146.024 58.6894 144.304 56.9557L141.087 53.7137L137.87 50.4718L141.087 47.2299V47.2581Z" fill="black"/>
<path d="M112.136 44.0161L108.92 40.7742C106.346 38.1807 102.92 36.743 99.2692 36.743C95.6189 36.743 92.1923 38.1666 89.6189 40.7742C84.3042 46.1304 84.3042 54.8555 89.6189 60.2258C92.1923 62.8193 95.6189 64.257 99.2692 64.257C102.92 64.257 106.346 62.8334 108.92 60.2258L112.136 56.9839L115.353 53.7419L121.787 60.2258L115.353 66.7096C111.059 71.0369 105.353 73.419 99.2692 73.419C93.1853 73.419 87.479 71.0369 83.1853 66.7096C74.3182 57.7732 74.3182 43.2409 83.1853 34.3045C87.479 29.9772 93.1853 27.5951 99.2692 27.5951C105.353 27.5951 111.059 29.9772 115.353 34.3045L118.57 37.5464L121.787 34.3045L118.57 31.0625C113.409 25.8614 106.556 23 99.2692 23C91.9825 23 85.1294 25.8614 79.9825 31.0484C69.3392 41.775 69.3392 59.2109 79.9825 69.9375C85.1434 75.1245 91.9825 77.9859 99.2832 77.9859C106.584 77.9859 113.423 75.1245 118.584 69.9375L128.234 60.2117L112.15 44.002L112.136 44.0161ZM108.92 53.7419L105.703 56.9839C103.983 58.7176 101.703 59.6761 99.2692 59.6761C96.8357 59.6761 94.5559 58.7176 92.8357 56.9979C89.2832 53.4177 89.2832 47.6105 92.8357 44.0302C94.5559 42.2965 96.8357 41.338 99.2692 41.338C101.703 41.338 103.983 42.2965 105.703 44.0302L108.92 47.2722L112.136 50.5141L108.92 53.756V53.7419Z" fill="black"/>
<rect x="43.229" y="100" width="205.771" height="1" fill="#E6EFF5"/>
</svg>
